Coordinates
version=1
nRows=12
nColumns=24
inDegrees=yes

Units are S.I. units (second, meters, Newtons, ...)
Angles are in degrees.

endheader
time	pelvis_tilt	pelvis_list	pelvis_rotation	pelvis_tx	pelvis_ty	pelvis_tz	hip_flexion_r	hip_adduction_r	hip_rotation_r	knee_angle_r	ankle_angle_r	subtalar_angle_r	mtp_angle_r	hip_flexion_l	hip_adduction_l	hip_rotation_l	knee_angle_l	ankle_angle_l	subtalar_angle_l	mtp_angle_l	lumbar_extension	lumbar_bending	lumbar_rotation
      5.36000000	     13.39056250	     -3.57075837	      3.25077460	      1.57025681	      0.72585100	     -0.23432943	    -31.80950369	      5.03013213	     -7.02267028	    -12.98907313	     32.60118940	     23.15731044	      0.00000000	     15.89109436	      0.50356065	      3.15631080	     -9.26989790	     16.74963904	      9.57608304	      0.00000000	    -33.54202395	      4.49423477	     15.29780158
      5.36500000	     13.29280010	     -3.29260819	      2.94964084	      1.57856532	      0.72525613	     -0.23473711	    -31.73098016	      4.42922279	     -7.01471145	    -14.33665247	     32.25426521	     23.56883616	      0.00000000	     16.04265485	      0.87617505	      3.00592797	    -10.04397477	     16.34103583	      8.69293064	      0.00000000	    -33.36043335	      4.03323830	     15.13387130
      5.37000000	     13.18054368	     -2.97558625	      2.70419111	      1.58690754	      0.72471420	     -0.23521299	    -31.57591096	      3.80654073	     -7.09349305	    -15.79334560	     31.75313901	     24.01952580	      0.00000000	     16.24642718	      1.30810681	      2.94318900	    -11.02595600	     15.87108162	      7.58708438	      0.00000000	    -33.15696214	      3.56354816	     14.88081441
      5.37500000	     13.08285741	     -2.63308605	      2.51383504	      1.59525778	      0.72425290	     -0.23574894	    -31.37874457	      3.18150786	     -7.21317694	    -17.34307954	     31.07484231	     24.43540294	      0.00000000	     16.47539942	      1.77997455	      2.92517703	    -12.20257226	     15.35597473	      6.36302775	      0.00000000	    -32.97069649	      3.09412922	     14.56588202
      5.38000000	     13.00459299	     -2.27389351	      2.38376583	      1.60359469	      0.72387932	     -0.23634592	    -31.14305798	      2.56525387	     -7.37404695	    -18.97659535	     30.19267333	     24.82547602	      0.00000000	     16.71985362	      2.28391792	      2.96429676	    -13.54408758	     14.78834016	      5.05669895	      0.00000000	    -32.81075194	      2.64367440	     14.16158207
      5.38500000	     12.93101267	     -1.89241666	      2.21957233	      1.61189593	      0.72359125	     -0.23689802	    -30.82219421	      1.91639268	     -7.43460361	    -20.75050217	     29.22741820	     25.01675377	      0.00000000	     16.98767219	      2.78850519	      2.87390255	    -15.02113644	     14.20166354	      3.83324360	      0.00000000	    -32.67026007	      2.14943796	     13.80104586
      5.39000000	     12.86285220	     -1.50995699	      2.13405228	      1.62017751	      0.72337232	     -0.23753195	    -30.44604083	      1.29760360	     -7.55681630	    -22.60032978	     28.00836195	     25.19401035	      0.00000000	     17.26353186	      3.31845273	      2.90384499	    -16.57952173	     13.61293980	      2.56556827	      0.00000000	    -32.53923356	      1.69464587	     13.36558656
      5.39500000	     12.81718153	     -1.12353304	      2.07087860	      1.62841340	      0.72324644	     -0.23818613	    -30.01950538	      0.68327964	     -7.67815677	    -24.53990139	     26.60529996	     25.26652014	      0.00000000	     17.52052467	      3.85325959	      2.93342511	    -18.19153576	     13.06802424	      1.38819169	      0.00000000	    -32.44542400	      1.25324149	     12.91167600
      5.40000000	     12.78201938	     -0.73394214	      2.02744257	      1.63659766	      0.72320477	     -0.23886101	    -29.52771590	      0.07262597	     -7.78917509	    -26.56576696	     25.00839568	     25.21731290	      0.00000000	     17.75774838	      4.39286601	      2.97142429	    -19.81552403	     12.58969000	      0.32370675	      0.00000000	    -32.37531126	      0.82069986	     12.44501461
      5.40500000	     12.75826381	     -0.34254649	      2.00063936	      1.64472678	      0.72324706	     -0.23954908	    -28.97144610	     -0.53323818	     -7.88684163	    -28.66938707	     23.22339572	     25.02718935	      0.00000000	     17.96226638	      4.93459390	      3.01068204	    -21.41991941	     12.21141405	     -0.59623326	      0.00000000	    -32.32849623	      0.39770968	     11.97584233
      5.41000000	     12.73787367	      0.04733746	      1.98059389	      1.65279113	      0.72336799	     -0.24024585	    -28.34033044	     -1.13713118	     -7.96643462	    -30.84124270	     21.27259308	     24.67730194	      0.00000000	     18.12864879	      5.47459540	      3.05394207	    -22.96968248	     11.95901799	     -1.37143112	      0.00000000	    -32.29690834	     -0.01475629	     11.50970069
      5.41500000	     12.72776636	      0.43922144	      1.96220124	      1.66077847	      0.72357158	     -0.24093757	    -27.64431860	     -1.74352441	     -8.03171944	    -33.06733583	     19.18622955	     24.13818795	      0.00000000	     18.24383945	      6.01022557	      3.07323197	    -24.44618014	     11.84019551	     -1.96713573	      0.00000000	    -32.28862348	     -0.42448523	     11.05389521
